<svg width="57" height="71" viewBox="0 0 57 71" fill="none" xmlns="http://www.w3.org/2000/svg">
<path d="M28.9596 61.308C28.8091 61.3481 28.6541 61.3677 28.5001 61.3677C28.346 61.3677 28.191 61.3481 28.0405 61.308L1.78131 54.3051V56.0453L28.5001 63.1178L55.2188 56.0453V54.3051L28.9596 61.308Z" fill="#8E7A5B"/>
<path d="M28.5001 64.9302C28.4235 64.9302 28.3469 64.9204 28.2721 64.9008L1.78137 57.8881V59.5856L24.0764 65.5314L25.8461 66.0034C25.9164 67.0214 26.5452 67.8835 27.4385 68.271L28.0406 68.4322C28.1911 68.4722 28.346 68.4918 28.5001 68.4918C28.6542 68.4918 28.8092 68.4722 28.9597 68.4322L29.5617 68.271C30.455 67.8835 31.0838 67.0214 31.1542 66.0034L32.9239 65.5314L55.2189 59.5856V57.8881L28.7281 64.9008C28.6533 64.9204 28.5767 64.9302 28.5001 64.9302Z" fill="#8E7A5B"/>
<path opacity="0.15" d="M29.3906 21.9424V59.3486L55.2188 52.4614V15.0552L29.3906 21.9424Z" fill="#231F20"/>
<path d="M1.78215 15.0561H1.77948L1.78126 52.4614L27.6094 59.3486V21.9424L1.78215 15.0552V15.0561Z" fill="#FFFBEA"/>
<path d="M29.3907 21.9424V59.3486L55.2188 52.4614V15.0552L29.3907 21.9424Z" fill="#FFFBEA"/>
<path d="M8.00849 39.8395L20.8932 43.5213C20.9751 43.5436 21.057 43.5552 21.1381 43.5552C21.5255 43.5552 21.8818 43.3005 21.994 42.9086C22.1285 42.4366 21.855 41.9432 21.3812 41.8078L8.49744 38.1259C8.02808 37.9959 7.532 38.264 7.39663 38.7387C7.26125 39.2107 7.53557 39.7041 8.00849 39.8395Z" fill="#394240"/>
<path d="M8.00849 46.0747L20.8932 49.7557C20.9751 49.778 21.057 49.7895 21.1381 49.7895C21.5255 49.7895 21.8818 49.5348 21.994 49.1429C22.1285 48.67 21.855 48.1775 21.3812 48.0421L8.49744 44.3612C8.02808 44.2311 7.532 44.4992 7.39663 44.9739C7.26125 45.4468 7.53557 45.9394 8.00849 46.0747Z" fill="#394240"/>
<path d="M8.00849 33.6051L20.8932 37.287C20.9751 37.3092 21.057 37.3208 21.1381 37.3208C21.5255 37.3208 21.8818 37.0661 21.994 36.6742C22.1285 36.2022 21.855 35.7088 21.3812 35.5734L8.49744 31.8916C8.02808 31.7615 7.532 32.0296 7.39663 32.5043C7.26125 32.9763 7.53557 33.4698 8.00849 33.6051Z" fill="#394240"/>
<path d="M8.00849 27.3708L20.8932 31.0526C20.9751 31.0749 21.057 31.0864 21.1381 31.0864C21.5255 31.0864 21.8818 30.8317 21.994 30.4398C22.1285 29.9678 21.855 29.4744 21.3812 29.339L8.49744 25.6572C8.02808 25.5272 7.532 25.7952 7.39663 26.2699C7.26125 26.742 7.53557 27.2354 8.00849 27.3708Z" fill="#394240"/>
<path d="M35.5921 43.5213C35.674 43.5213 35.7559 43.5097 35.837 43.4875L48.7217 39.8056C49.1946 39.6702 49.4689 39.1768 49.3344 38.7048C49.199 38.231 48.7039 37.9638 48.2336 38.092L35.348 41.7739C34.8751 41.9093 34.6008 42.4027 34.7353 42.8747C34.8484 43.2666 35.2047 43.5213 35.5921 43.5213Z" fill="#394240"/>
<path d="M48.5026 44.3612L35.6179 48.0422C35.145 48.1775 34.8707 48.6701 35.0052 49.143C35.1183 49.5349 35.4745 49.7896 35.862 49.7896C35.9439 49.7896 36.0258 49.778 36.1069 49.7557L48.9916 46.0748C49.4645 45.9394 49.7388 45.4469 49.6043 44.974C49.468 44.5002 48.9729 44.233 48.5026 44.3612Z" fill="#394240"/>
<path d="M35.8619 37.3208C35.9439 37.3208 36.0258 37.3092 36.1069 37.287L48.9915 33.6051C49.4644 33.4698 49.7388 32.9763 49.6043 32.5043C49.4689 32.0305 48.9737 31.7615 48.5035 31.8916L35.6188 35.5734C35.1459 35.7088 34.8716 36.2022 35.006 36.6742C35.1183 37.0661 35.4745 37.3208 35.8619 37.3208Z" fill="#394240"/>
<path d="M35.8619 31.0864C35.9439 31.0864 36.0258 31.0748 36.1069 31.0526L48.9915 27.3707C49.4644 27.2354 49.7388 26.742 49.6043 26.2699C49.4689 25.7961 48.9737 25.5289 48.5035 25.6572L35.6188 29.339C35.1459 29.4744 34.8716 29.9678 35.006 30.4398C35.1183 30.8317 35.4745 31.0864 35.8619 31.0864Z" fill="#394240"/>
<path d="M56.3044 13.6429C55.9891 13.4015 55.6062 13.275 55.217 13.275C55.0638 13.275 54.9097 13.2946 54.7592 13.3338L28.5 20.3368L2.24081 13.3338C2.08941 13.2937 1.93533 13.275 1.78214 13.275C1.39294 13.275 1.01086 13.4015 0.695578 13.6429C0.257391 13.9804 0 14.5023 0 15.0554V59.5857C0 60.3926 0.542391 61.0989 1.32169 61.3073L24.3648 67.4517C25.0168 69.103 26.6181 70.2741 28.5 70.2741C30.3819 70.2741 31.9832 69.103 32.6352 67.4517L55.6783 61.3073C56.4576 61.0989 57 60.3926 57 59.5857V15.0554C57 14.5023 56.7426 13.9804 56.3044 13.6429ZM1.78214 15.0563L27.6094 21.9426V59.3488L1.78125 52.4616L1.77947 15.0563C1.77947 15.0563 1.78036 15.0563 1.78214 15.0563ZM55.2188 59.5857L32.9237 65.5316L31.1541 66.0036C31.0837 67.0216 30.4549 67.8837 29.5616 68.2711L28.9596 68.4323C28.809 68.4724 28.6541 68.492 28.5 68.492C28.3459 68.492 28.191 68.4724 28.0404 68.4323L27.4384 68.2711C26.5451 67.8837 25.9163 67.0216 25.8459 66.0036L24.0763 65.5316L1.78125 59.5857V57.8882L28.272 64.901C28.3468 64.9206 28.4234 64.9304 28.5 64.9304C28.5766 64.9304 28.6532 64.9206 28.728 64.901L55.2188 57.8882V59.5857ZM55.2188 56.0455L28.5 63.118L1.78125 56.0455V54.3052L28.0404 61.3073C28.191 61.3483 28.3459 61.3679 28.5 61.3679C28.6541 61.3679 28.809 61.3483 28.9596 61.3082L55.2188 54.3052V56.0455ZM55.2188 52.4616L29.3906 59.3488V21.9426L55.2188 15.0554V52.4616Z" fill="#394240"/>
<rect x="32.7946" y="20.3014" width="13.274" height="9.36986" fill="#0066FF"/>
<rect x="11.7123" y="7.80823" width="32.7945" height="24.2055" rx="2" fill="#0066FF"/>
<rect x="14.8356" y="28.8904" width="28.1096" height="7.0274" rx="1" fill="#0066FF"/>
<rect x="17.9589" y="32.7945" width="21.0822" height="5.46575" fill="#0066FF"/>
<rect x="32.0137" y="32.7945" width="2.34247" height="6.24658" fill="#0066FF"/>
<rect x="20.3013" y="35.137" width="11.7123" height="3.90411" fill="#0066FF"/>
<rect x="12.4931" y="30.4521" width="3.90411" height="2.34247" fill="#0066FF"/>
<rect x="19.5205" y="14.8356" width="27.3288" height="14.0548" fill="#0066FF"/>
<rect x="10.1507" y="11.7123" width="10.1507" height="16.3973" fill="#0066FF"/>
<rect x="12.4931" y="8.58905" width="3.12329" height="3.90411" fill="#0066FF"/>
<rect x="19.5205" y="3.90411" width="19.5205" height="8.58904" fill="#0066FF"/>
<rect x="21.0822" y="2.34247" width="14.8356" height="2.34247" fill="#0066FF"/>
<path d="M29.7947 41.3459C41.2083 40.6644 49.8963 30.8163 49.1467 19.4006C48.4653 7.98493 38.6189 -0.704599 27.2053 0.0450859C15.7917 0.726618 7.10375 10.5748 7.85331 21.9904C8.53471 33.372 18.3811 42.0275 29.7947 41.3459ZM23.8664 16.4359C23.2872 15.3114 24.9226 14.698 25.7744 13.8461C26.8306 12.7216 29.1133 10.8814 28.8407 10.1999C28.5682 9.45023 26.2514 7.40563 24.9908 7.8827C24.7182 7.8827 23.2532 9.51838 22.9125 9.79099C22.9125 9.21169 22.8102 8.905 22.8102 8.35978C22.8102 7.98493 22.0607 7.67824 22.1288 7.40563C22.197 6.75818 23.7642 5.56549 24.139 5.08842C23.8324 4.88396 22.7762 4.13428 22.5036 4.23651C21.8222 4.61135 20.9704 4.88396 20.2209 5.19065C20.2209 4.91804 20.1527 4.64543 20.1187 4.50912C21.5496 3.75943 23.0828 3.24828 24.6841 2.87344L26.1151 3.41867L27.1713 4.5432L28.2274 5.53142C28.2274 5.53142 28.8748 5.80403 29.1133 5.80403C29.4199 5.73588 30.442 4.44097 30.442 4.44097L30.0332 3.45275L29.965 2.56675C32.827 2.83937 35.4504 3.69128 37.8353 5.15658C37.4605 5.22473 36.9495 5.2588 36.4725 5.42919C36.2681 5.32696 35.1437 5.53142 35.2119 6.00849C35.28 6.38333 37.2221 7.95086 38.0738 9.348C38.9256 10.7792 41.3105 11.6652 41.7193 13.2668C42.1282 15.1069 41.4468 17.4923 41.7875 19.7073C42.0941 21.8882 44.4791 24.1372 44.4791 24.1372C44.4791 24.1372 45.5352 24.4439 46.387 24.2395C45.7397 27.4767 44.3087 30.4414 42.0941 32.9631C39.607 35.7574 36.4725 37.7338 32.9292 38.5857C33.338 37.3249 34.1898 36.0981 35.0075 35.4166C35.6889 34.7691 36.5406 33.6787 36.8473 32.8268C37.1539 31.9408 37.5968 31.1911 38.1079 30.3392C38.7552 29.2147 36.1659 27.6471 35.3141 27.3745C33.4062 26.693 31.9752 25.7388 30.3398 24.6825C29.1133 23.9328 25.4677 25.6366 24.1049 25.0914C22.2651 24.4099 21.6178 23.8306 19.9824 22.7742C18.2789 21.6497 18.7559 19.2984 18.6536 17.5264C19.9143 17.5264 21.6518 16.9812 22.5717 17.9353C22.8443 18.242 23.8324 19.571 24.4116 19.0598C25.0248 18.4124 24.0708 16.8108 23.8664 16.4359ZM13.7134 9.9273C13.8156 10.8133 14.2926 11.5289 14.2926 12.1423C14.2926 14.6299 14.0882 16.0952 15.6554 18.0716C16.3028 18.8213 16.5072 19.9799 16.7798 20.934C17.0864 21.82 18.1426 22.263 18.9603 22.7742C20.4935 23.7624 21.9585 25.0573 23.6279 25.9433C24.6841 26.5226 25.3315 26.8293 25.1611 28.1242C24.9567 29.1124 24.9567 29.7599 24.4797 30.714C24.3775 31.0207 25.2292 32.7245 25.4677 32.929C26.3195 33.6105 27.1031 34.2921 28.023 34.9395C29.3858 35.9277 28.023 37.4271 27.4779 38.9606C23.4576 38.688 19.6076 37.1204 16.4731 34.3943C12.8276 31.157 10.6471 26.6589 10.3404 21.8541C9.99974 17.4582 11.0559 13.369 13.7134 9.9273Z" fill="#1A7122"/>
<path d="M49.1918 20.6918C49.1918 32.1195 39.9278 41.3836 28.5 41.3836C17.0723 41.3836 7.80823 32.1195 7.80823 20.6918C7.80823 9.26403 17.0723 0 28.5 0C39.9278 0 49.1918 9.26403 49.1918 20.6918ZM8.1216 20.6918C8.1216 31.9465 17.2453 41.0702 28.5 41.0702C39.7547 41.0702 48.8784 31.9465 48.8784 20.6918C48.8784 9.4371 39.7547 0.313375 28.5 0.313375C17.2453 0.313375 8.1216 9.4371 8.1216 20.6918Z" fill="#757668"/>
<path d="M15.5627 18L16.2871 9.27273H19.5598C20.1848 9.27273 20.6948 9.37358 21.0897 9.57528C21.4874 9.77415 21.7729 10.0455 21.9462 10.3892C22.1223 10.733 22.1919 11.1193 22.155 11.5483C22.1266 11.9091 22.0343 12.2145 21.878 12.4645C21.7218 12.7145 21.5243 12.9162 21.2857 13.0696C21.0471 13.2202 20.7885 13.3295 20.5101 13.3977L20.5016 13.483C20.7999 13.5 21.0826 13.5952 21.3496 13.7685C21.6167 13.9389 21.8283 14.1818 21.9846 14.4972C22.1408 14.8097 22.2005 15.1889 22.1635 15.6349C22.1266 16.0838 21.986 16.4872 21.7417 16.8452C21.4973 17.2003 21.1479 17.4815 20.6934 17.6889C20.2388 17.8963 19.6749 18 19.0016 18H15.5627ZM17.1181 16.777H18.9164C19.5186 16.777 19.9604 16.6605 20.2417 16.4276C20.5257 16.1946 20.6834 15.9006 20.7147 15.5455C20.7346 15.2756 20.6863 15.0312 20.5698 14.8125C20.4561 14.5938 20.2814 14.4205 20.0456 14.2926C19.8098 14.1648 19.5229 14.1009 19.1848 14.1009H17.3397L17.1181 16.777ZM17.4292 13.0142H19.0953C19.3794 13.0142 19.6394 12.9616 19.8752 12.8565C20.1138 12.7486 20.307 12.5966 20.4547 12.4006C20.6025 12.2045 20.6877 11.9716 20.7104 11.7017C20.7388 11.3523 20.6394 11.0625 20.4121 10.8324C20.1877 10.6023 19.8297 10.4872 19.3382 10.4872H17.638L17.4292 13.0142ZM26.1618 18.1321C25.5311 18.1321 24.9941 17.9901 24.551 17.706C24.1078 17.4219 23.7797 17.0256 23.5666 16.517C23.3535 16.0057 23.2754 15.4105 23.3322 14.7315C23.3862 14.0582 23.5595 13.4702 23.8521 12.9673C24.1447 12.4616 24.5325 12.0696 25.0154 11.7912C25.4984 11.5099 26.0524 11.3693 26.6774 11.3693C27.3081 11.3693 27.8436 11.5114 28.2839 11.7955C28.7271 12.0795 29.0552 12.4773 29.2683 12.9886C29.4814 13.5 29.5609 14.0966 29.5069 14.7784C29.4529 15.4489 29.2782 16.0355 28.9828 16.5384C28.6873 17.0412 28.2981 17.4332 27.8152 17.7145C27.335 17.9929 26.7839 18.1321 26.1618 18.1321ZM26.2129 16.9773C26.5907 16.9773 26.9132 16.8764 27.1802 16.6747C27.4501 16.4702 27.6603 16.1974 27.8109 15.8565C27.9643 15.5156 28.0581 15.1392 28.0922 14.7273C28.1262 14.321 28.0964 13.9517 28.0027 13.6193C27.9118 13.2841 27.7527 13.0156 27.5254 12.8139C27.2981 12.6122 26.9998 12.5114 26.6305 12.5114C26.2498 12.5114 25.9245 12.6151 25.6547 12.8224C25.3848 13.027 25.1731 13.3011 25.0197 13.6449C24.8691 13.9858 24.7768 14.3622 24.7427 14.7741C24.7115 15.1804 24.7413 15.5497 24.8322 15.8821C24.926 16.2145 25.0865 16.4801 25.3137 16.679C25.541 16.8778 25.8407 16.9773 26.2129 16.9773ZM33.4274 18.1321C32.7967 18.1321 32.2598 17.9901 31.8166 17.706C31.3734 17.4219 31.0453 17.0256 30.8322 16.517C30.6191 16.0057 30.541 15.4105 30.5978 14.7315C30.6518 14.0582 30.8251 13.4702 31.1177 12.9673C31.4103 12.4616 31.7981 12.0696 32.2811 11.7912C32.764 11.5099 33.318 11.3693 33.943 11.3693C34.5737 11.3693 35.1092 11.5114 35.5495 11.7955C35.9927 12.0795 36.3208 12.4773 36.5339 12.9886C36.747 13.5 36.8265 14.0966 36.7726 14.7784C36.7186 15.4489 36.5439 16.0355 36.2484 16.5384C35.9529 17.0412 35.5637 17.4332 35.0808 17.7145C34.6007 17.9929 34.0495 18.1321 33.4274 18.1321ZM33.4785 16.9773C33.8564 16.9773 34.1788 16.8764 34.4458 16.6747C34.7157 16.4702 34.926 16.1974 35.0765 15.8565C35.2299 15.5156 35.3237 15.1392 35.3578 14.7273C35.3919 14.321 35.362 13.9517 35.2683 13.6193C35.1774 13.2841 35.0183 13.0156 34.791 12.8139C34.5637 12.6122 34.2654 12.5114 33.8961 12.5114C33.5154 12.5114 33.1902 12.6151 32.9203 12.8224C32.6504 13.027 32.4387 13.3011 32.2853 13.6449C32.1348 13.9858 32.0424 14.3622 32.0083 14.7741C31.9771 15.1804 32.0069 15.5497 32.0978 15.8821C32.1916 16.2145 32.3521 16.4801 32.5794 16.679C32.8066 16.8778 33.1064 16.9773 33.4785 16.9773ZM39.3379 15.8651L39.4743 14.1562H39.7086L42.4189 11.4545H44.0808L40.8848 14.642H40.6248L39.3379 15.8651ZM37.872 18L38.5964 9.27273H40.0069L39.2825 18H37.872ZM41.997 18L40.0112 14.9574L41.051 13.9645L43.6973 18H41.997ZM15.0135 33L13.2919 24.2727H14.8388L15.9297 30.8608H16.0064L18.2777 24.2727H19.7351L20.9155 30.8651H20.9964L23.1783 24.2727H24.7209L21.5547 33H20.1101L18.8445 26.6676H18.7763L16.4538 33H15.0135ZM27.2223 33.1321C26.5916 33.1321 26.0547 32.9901 25.6115 32.706C25.1683 32.4219 24.8402 32.0256 24.6271 31.517C24.4141 31.0057 24.3359 30.4105 24.3928 29.7315C24.4467 29.0582 24.62 28.4702 24.9126 27.9673C25.2053 27.4616 25.593 27.0696 26.076 26.7912C26.5589 26.5099 27.1129 26.3693 27.7379 26.3693C28.3686 26.3693 28.9041 26.5114 29.3445 26.7955C29.7876 27.0795 30.1158 27.4773 30.3288 27.9886C30.5419 28.5 30.6214 29.0966 30.5675 29.7784C30.5135 30.4489 30.3388 31.0355 30.0433 31.5384C29.7479 32.0412 29.3587 32.4332 28.8757 32.7145C28.3956 32.9929 27.8445 33.1321 27.2223 33.1321ZM27.2734 31.9773C27.6513 31.9773 27.9737 31.8764 28.2408 31.6747C28.5107 31.4702 28.7209 31.1974 28.8714 30.8565C29.0249 30.5156 29.1186 30.1392 29.1527 29.7273C29.1868 29.321 29.157 28.9517 29.0632 28.6193C28.9723 28.2841 28.8132 28.0156 28.5859 27.8139C28.3587 27.6122 28.0604 27.5114 27.6911 27.5114C27.3104 27.5114 26.9851 27.6151 26.7152 27.8224C26.4453 28.027 26.2337 28.3011 26.0803 28.6449C25.9297 28.9858 25.8374 29.3622 25.8033 29.7741C25.772 30.1804 25.8018 30.5497 25.8928 30.8821C25.9865 31.2145 26.147 31.4801 26.3743 31.679C26.6016 31.8778 26.9013 31.9773 27.2734 31.9773ZM31.6669 33L32.2124 26.4545H33.5803L33.4865 27.5199H33.5547C33.7053 27.1562 33.9382 26.8722 34.2536 26.6676C34.5689 26.4602 34.9155 26.3565 35.2933 26.3565C35.3757 26.3565 35.4695 26.3608 35.5746 26.3693C35.6825 26.375 35.7706 26.3835 35.8388 26.3949L35.728 27.7159C35.6712 27.696 35.5746 27.6776 35.4382 27.6605C35.3047 27.6406 35.1726 27.6307 35.0419 27.6307C34.7493 27.6307 34.4837 27.6932 34.245 27.8182C34.0064 27.9403 33.8118 28.1108 33.6612 28.3295C33.5135 28.5455 33.4268 28.7955 33.4013 29.0795L33.0774 33H31.6669ZM38.4893 24.2727L37.7649 33H36.3544L37.0788 24.2727H38.4893ZM41.8505 33.1193C41.3278 33.1193 40.8718 32.9858 40.4826 32.7188C40.0962 32.4517 39.8065 32.0668 39.6133 31.5639C39.4201 31.0582 39.3519 30.4503 39.4087 29.7401C39.4712 29.0213 39.6417 28.4105 39.9201 27.9077C40.2013 27.4048 40.5579 27.0227 40.9897 26.7614C41.4244 26.5 41.8988 26.3693 42.413 26.3693C42.8079 26.3693 43.1232 26.4361 43.359 26.5696C43.5977 26.7003 43.7795 26.8565 43.9045 27.0384C44.0323 27.2173 44.1289 27.3793 44.1942 27.5241H44.2624L44.5352 24.2727H45.9457L45.2212 33H43.8406L43.9258 31.973H43.8278C43.7369 32.1236 43.6104 32.2884 43.4485 32.4673C43.2866 32.6463 43.0763 32.7997 42.8178 32.9276C42.5593 33.0554 42.2369 33.1193 41.8505 33.1193ZM42.2894 31.9474C42.636 31.9474 42.9386 31.8551 43.1971 31.6705C43.4585 31.483 43.6673 31.223 43.8235 30.8906C43.9798 30.5554 44.0749 30.1676 44.109 29.7273C44.146 29.2869 44.1147 28.9034 44.0153 28.5767C43.9158 28.25 43.7511 27.9972 43.521 27.8182C43.2937 27.6364 43.0039 27.5455 42.6516 27.5455C42.2908 27.5455 41.9812 27.6406 41.7227 27.831C41.467 28.0185 41.2653 28.277 41.1175 28.6065C40.9698 28.9332 40.8789 29.3068 40.8448 29.7273C40.8079 30.1506 40.8363 30.5298 40.93 30.8651C41.0266 31.2003 41.1871 31.4645 41.4116 31.6577C41.6388 31.8509 41.9315 31.9474 42.2894 31.9474Z" fill="#9DC59A"/>
</svg>
