<svg width="49" height="46" viewBox="0 0 49 46" fill="none" xmlns="http://www.w3.org/2000/svg">
<path d="M45.6418 11.774C43.4115 8.24182 40.5728 5.29831 36.7204 3.13974C33.0707 0.981169 29.0155 0 24.5548 0C20.0941 0 16.0389 0.981169 12.3892 3.13974C8.53676 5.29831 5.69812 8.04559 3.46776 11.774C1.2374 15.3062 0.223602 19.2309 0.223602 23.5481C0.223602 28.6501 1.84568 33.3598 4.88708 37.4807C7.92848 41.6016 11.9837 44.3488 16.8499 45.9187C17.4582 46.1149 17.8637 45.9187 18.0665 45.7225C18.472 45.5262 18.472 45.1338 18.472 44.7413C18.472 44.7413 18.472 44.1526 18.472 43.1714C18.472 42.1903 18.472 41.2091 18.472 40.4242L17.661 40.6204C17.2554 40.6204 16.6472 40.8166 15.8361 40.8166C15.2278 40.8166 14.4168 40.8166 13.6058 40.6204C12.7947 40.4242 12.1864 40.2279 11.5782 39.6392C10.9699 39.2468 10.3616 38.4618 10.1588 37.6769L9.75332 36.892C9.55056 36.4995 9.14504 35.9108 8.73952 35.3221C8.334 34.7334 7.72572 34.3409 7.3202 34.1447L7.11744 33.9485C6.91468 33.7522 6.91468 33.7522 6.71192 33.556C6.50916 33.3598 6.50916 33.3598 6.50916 33.1635C6.50916 32.9673 6.50916 32.9673 6.71192 32.7711C6.91468 32.7711 7.11744 32.5748 7.72572 32.5748H8.334C8.73952 32.5748 9.3478 32.9673 9.95608 33.3598C10.5644 33.7522 11.1726 34.3409 11.5782 34.9296C11.9837 35.7146 12.592 36.4995 13.403 36.892C14.0113 37.2844 14.8223 37.4807 15.4306 37.4807C16.0389 37.4807 16.6472 37.4807 17.2554 37.2844C17.661 37.4807 18.0665 37.2844 18.472 37.0882C18.6748 35.7146 19.0803 34.7334 20.0941 33.9485C18.8775 33.7522 17.8637 33.556 16.8499 33.3598C15.8361 33.1635 14.8223 32.771 13.8085 32.1823C12.7947 31.5936 11.9837 31.0049 11.1726 30.22C10.5644 29.4351 9.95608 28.2577 9.55056 27.0803C9.14504 25.7066 8.94228 24.1368 8.94228 22.5669C8.94228 20.0159 9.75332 18.0535 11.3754 16.2874C10.7671 14.1288 10.7671 11.9703 11.7809 9.81169C12.3892 9.61546 13.2002 9.61546 14.4168 10.2042C15.6334 10.5966 16.4444 10.9891 17.0527 11.3816C17.661 11.5778 18.0665 11.9703 18.472 12.1665C20.4996 11.5778 22.5272 11.3816 24.5548 11.3816C26.5824 11.3816 28.61 11.5778 30.6376 12.1665L31.8542 11.3816C32.6652 10.9891 33.679 10.4004 34.6928 10.0079C35.9094 9.61546 36.7204 9.41922 37.3287 9.61546C38.3425 11.9703 38.3425 13.9326 37.5314 15.8949C39.1535 17.661 39.9646 19.8196 39.9646 22.1744C39.9646 23.9405 39.7618 25.5104 39.3563 26.884C38.9508 28.2577 38.3425 29.2388 37.7342 30.0238C37.1259 30.8087 36.1121 31.5936 35.0983 31.9861C34.0845 32.5748 33.0707 32.9673 32.0569 33.1635C31.0431 33.3598 30.0293 33.556 28.8128 33.7522C29.8266 34.7334 30.4348 36.107 30.4348 38.0694V44.5451C30.4348 44.9375 30.6376 45.1338 30.8404 45.5262C31.0431 45.7225 31.4486 45.9187 32.0569 45.7225C36.9232 44.1526 40.9784 41.4053 44.0198 37.2844C47.2639 33.3598 48.886 28.6501 48.886 23.5481C48.886 19.2309 47.8722 15.3062 45.6418 11.774Z" fill="black"/>
</svg>
