<svg width="57" height="54" viewBox="0 0 57 54" fill="none" xmlns="http://www.w3.org/2000/svg">
<g filter="url(#filter0_d_45_48)">
<path d="M11.7925 24.0263C12.9654 24.9159 14.3066 25.3603 15.8154 25.3603C17.7214 25.2926 19.3096 24.6307 20.5807 23.376C21.1935 22.4877 21.5874 21.5755 21.7623 20.6407C21.8671 19.7073 21.9199 18.9196 21.9199 18.2809C21.9199 15.5225 21.1895 12.7408 19.7295 9.93585C19.0445 8.59145 18.1433 7.4967 17.0251 6.65226C15.8835 5.85491 14.5717 5.43236 13.0883 5.38721C11.1262 5.43236 9.49396 6.19746 8.19415 7.67927C7.09663 9.2301 6.5719 10.9629 6.61997 12.8769C6.61997 15.4083 7.3857 18.0429 8.91916 20.7781C9.66085 22.0542 10.6188 23.1379 11.7925 24.0263Z" fill="black"/>
<path d="M16.1899 34.644C15.6679 33.9815 15.2026 33.2719 14.794 32.5158C14.3173 31.7849 14.0797 30.903 14.0797 29.8735C14.0797 29.2561 14.1698 28.7407 14.3514 28.3284C14.5103 27.8936 14.6578 27.4943 14.794 27.1279C13.9715 27.2201 13.1958 27.2653 12.4674 27.2653C9.01664 27.2253 6.30087 26.2802 4.31946 24.4346V36.9096C6.08991 36.1258 7.92379 35.5756 9.82109 35.2575C12.3773 34.8937 14.5002 34.6892 16.1899 34.644Z" fill="black"/>
<path d="M18.1653 36.6208C17.704 36.5744 17.1626 36.5518 16.5397 36.5518C16.1706 36.5067 15.2252 36.5518 13.7038 36.6892C12.2044 36.8937 10.6716 37.2234 9.10409 37.6782C8.73491 37.8156 8.2162 38.0194 7.54794 38.293C6.87901 38.5891 6.19873 39.0097 5.50777 39.5567C5.06583 39.9322 4.67061 40.3683 4.31946 40.8631V42.7655C4.31946 44.5498 5.82021 46 7.6661 46H25.9087C25.9094 45.9562 25.9121 45.9142 25.9121 45.8717C25.9121 44.0963 25.3119 42.5494 24.1136 41.2288C22.8452 39.9773 20.8631 38.442 18.1653 36.6208Z" fill="black"/>
<path d="M49.0388 0H40.3928H28.3555H16.1278H7.6661C5.81954 0 4.31946 1.44891 4.31946 3.23456V6.73749V7.57161C4.53042 7.35485 4.74872 7.13939 4.97704 6.9265C7.03522 5.28858 9.17486 4.22028 11.3939 3.71839C13.5903 3.28617 15.6498 3.07071 17.5712 3.07071H32.0526L27.5804 5.59307H23.1149C23.5695 5.8653 24.0815 6.26463 24.6497 6.78781C25.1951 7.33357 25.7298 8.00512 26.2525 8.80118C26.7526 9.55209 27.1959 10.4391 27.5824 11.4635C27.9002 12.4867 28.0597 13.6827 28.0597 15.0471C28.017 17.5508 27.4449 19.5525 26.3447 21.0543C25.8046 21.7827 25.2331 22.4529 24.6296 23.0677C23.9607 23.6825 23.249 24.3076 22.494 24.945C22.0627 25.3772 21.6635 25.8662 21.297 26.4126C20.8657 26.9809 20.6494 27.6409 20.6494 28.3918C20.6494 29.1201 20.8711 29.722 21.313 30.2C21.6889 30.6561 22.0541 31.0541 22.4085 31.396L24.8653 33.3417C26.3921 34.5474 27.7306 35.8782 28.8815 37.3342C29.9664 38.8135 30.5305 40.7475 30.5745 43.1363C30.5745 44.124 30.4424 45.0781 30.1793 45.9999H49.0388C50.8854 45.9999 52.3861 44.5497 52.3861 42.7654V6.73684V3.23392C52.3861 1.44891 50.8854 0 49.0388 0ZM51.6725 14.2678H44.0739V21.6111H40.3928V14.2678H32.7943V10.7107H40.3928V3.36874H44.0739V10.7107H51.6725V14.2678Z" fill="black"/>
</g>
<defs>
<filter id="filter0_d_45_48" x="0.319458" y="0" width="56.0667" height="54.0001" filterUnits="userSpaceOnUse" color-interpolation-filters="sRGB">
<feFlood flood-opacity="0" result="BackgroundImageFix"/>
<feColorMatrix in="SourceAlpha" type="matrix" values="0 0 0 0 0 0 0 0 0 0 0 0 0 0 0 0 0 0 127 0" result="hardAlpha"/>
<feOffset dy="4"/>
<feGaussianBlur stdDeviation="2"/>
<feComposite in2="hardAlpha" operator="out"/>
<feColorMatrix type="matrix" values="0 0 0 0 0 0 0 0 0 0 0 0 0 0 0 0 0 0 0.25 0"/>
<feBlend mode="normal" in2="BackgroundImageFix" result="effect1_dropShadow_45_48"/>
<feBlend mode="normal" in="SourceGraphic" in2="effect1_dropShadow_45_48" result="shape"/>
</filter>
</defs>
</svg>
