<svg width="49" height="46" viewBox="0 0 49 46" fill="none" xmlns="http://www.w3.org/2000/svg">
<path d="M36.2387 20.0308C36.2387 26.2811 30.9825 31.3481 24.4986 31.3481C18.0147 31.3481 12.7584 26.2811 12.7584 20.0308C12.7584 18.2696 13.1879 16.6092 13.9318 15.1233H0.965271V41.589C0.965271 44.0151 3.02438 46 5.54106 46H43.4548C45.9714 46 48.0305 44.0151 48.0305 41.589V15.1233H35.0647C35.8093 16.6092 36.2387 18.2696 36.2387 20.0308Z" fill="black"/>
<path d="M43.4548 0H5.54106C3.02438 0 0.965271 1.98493 0.965271 4.41096V13.2329H15.1273C17.2701 10.4924 20.664 8.71353 24.4979 8.71353C28.3318 8.71353 31.7257 10.4924 33.8685 13.2329H48.0305V4.41096C48.0305 1.98493 45.9714 0 43.4548 0ZM4.72788 11.1635H3.02438V4.80227C3.02438 3.68945 3.72774 2.73605 4.72853 2.33088L4.72788 11.1635ZM7.51911 11.1635H5.90516V2.1223H7.51911V11.1635ZM10.3097 11.1635H8.69574V2.1223H10.3097V11.1635ZM13.0983 4.80227V8.48353V11.1635H11.4863V2.1223H13.0983V4.80227ZM45.6453 8.48353C45.6453 9.96435 44.4006 11.1635 42.8664 11.1635H38.3501C36.8153 11.1635 35.5707 9.96435 35.5707 8.48353V4.80227C35.5707 3.32145 36.8153 2.1223 38.3501 2.1223H42.8664C44.4013 2.1223 45.6453 3.32145 45.6453 4.80227V8.48353Z" fill="black"/>
<path d="M24.4986 30.0248C30.2092 30.0248 34.8385 25.5603 34.8385 20.0567C34.8385 14.5524 30.2098 10.0879 24.4986 10.0879C18.7867 10.0879 14.1573 14.5524 14.1573 20.0567C14.1573 25.5596 18.7867 30.0248 24.4986 30.0248ZM24.4979 12.1144C29.0476 12.1144 32.737 15.6703 32.737 20.0567C32.737 24.4424 29.0482 27.9989 24.4979 27.9989C19.9476 27.9989 16.2589 24.443 16.2589 20.0567C16.2595 15.6696 19.9483 12.1144 24.4979 12.1144Z" fill="black"/>
</svg>
