<svg width="63" height="54" viewBox="0 0 63 54" fill="none" xmlns="http://www.w3.org/2000/svg">
<g filter="url(#filter0_d_45_55)">
<path fill-rule="evenodd" clip-rule="evenodd" d="M50.6601 29.2489C52.4538 31.8814 54.347 34.3582 55.9558 37.2562C56.6665 38.544 57.3393 39.8729 57.854 41.3674C58.5833 43.492 57.9228 45.8299 56.6555 45.9567L48.7777 45.9514C46.7459 46.2049 45.125 44.9753 43.7621 42.8871C42.6714 41.2171 41.6614 39.4397 40.6126 37.7134C40.1826 37.0078 39.7326 36.3439 39.195 35.8191C38.1196 34.7697 37.1861 35.091 36.5715 36.777C35.9456 38.4919 35.8036 40.3908 35.7422 42.3019C35.6578 45.0904 35.0971 45.8235 33.2337 45.9511C29.2514 46.2334 25.4721 45.3278 21.9612 42.308C18.8659 39.6459 16.4656 35.8877 14.3764 31.633C10.3087 23.3483 7.19361 14.2447 4.39392 4.88603C3.76373 2.77752 4.2246 1.64568 5.77226 1.60562C8.34223 1.53057 10.9118 1.53592 13.4848 1.60028C14.5293 1.62325 15.2208 2.5238 15.6241 4.00711C17.0146 9.14632 18.7159 14.0358 20.8515 18.568C21.4202 19.7746 22.0001 20.9812 22.8259 21.8305C23.7395 22.7709 24.435 22.4592 24.8648 20.9294C25.1375 19.9594 25.2569 18.9146 25.3184 17.8757C25.522 14.3016 25.5488 10.7335 25.1917 7.17188C24.9725 4.94906 24.1396 3.51009 22.664 3.08946C21.9111 2.875 22.0232 2.45383 22.3878 1.80779C23.021 0.69358 23.6165 0 24.8037 0H33.7068C35.1084 0.415827 35.4197 1.36232 35.6116 3.48232L35.6192 18.3482C35.604 19.1689 35.892 21.6043 36.8753 22.1475C37.6624 22.5342 38.1812 21.5877 38.6534 20.8375C40.7851 17.4367 42.3065 13.4176 43.6656 9.25582C44.2688 7.42586 44.7874 5.5254 45.2901 3.62653C45.6624 2.21748 46.2468 1.52416 47.3027 1.55488L55.8714 1.56636C56.1255 1.56636 56.3826 1.57197 56.6286 1.63527C58.0725 2.00516 58.4682 2.93883 58.0223 5.05829C57.3196 8.38357 55.9524 11.1547 54.6157 13.9386C53.1867 16.9108 51.6584 19.7813 50.2413 22.7711C48.9394 25.5014 49.0428 26.8776 50.6601 29.2489Z" fill="black"/>
</g>
<defs>
<filter id="filter0_d_45_55" x="0.120819" y="0" width="62.075" height="54" filterUnits="userSpaceOnUse" color-interpolation-filters="sRGB">
<feFlood flood-opacity="0" result="BackgroundImageFix"/>
<feColorMatrix in="SourceAlpha" type="matrix" values="0 0 0 0 0 0 0 0 0 0 0 0 0 0 0 0 0 0 127 0" result="hardAlpha"/>
<feOffset dy="4"/>
<feGaussianBlur stdDeviation="2"/>
<feComposite in2="hardAlpha" operator="out"/>
<feColorMatrix type="matrix" values="0 0 0 0 0 0 0 0 0 0 0 0 0 0 0 0 0 0 0.25 0"/>
<feBlend mode="normal" in2="BackgroundImageFix" result="effect1_dropShadow_45_55"/>
<feBlend mode="normal" in="SourceGraphic" in2="effect1_dropShadow_45_55" result="shape"/>
</filter>
</defs>
</svg>
