<svg width="46" height="46" viewBox="0 0 46 46" fill="none" xmlns="http://www.w3.org/2000/svg">
<path fill-rule="evenodd" clip-rule="evenodd" d="M39.1756 6.70833C34.951 2.39583 29.2243 0 23.216 0C10.8426 0 0.684723 10.3692 0.684723 23C0.684723 27.0442 1.90517 30.8775 3.87665 34.3467L0.684723 46L12.57 43.0292C15.8558 44.8692 19.4608 46 23.216 46C35.5894 46 45.7472 35.6308 45.7472 23C45.7472 16.8858 43.419 11.04 39.1756 6.70833ZM23.216 42.1667C19.8738 42.1667 16.6819 41.0358 13.8092 39.3108L13.1332 38.8892L6.07345 40.7867L7.95105 33.7525L7.50043 33.0242C5.6416 29.9958 4.43993 26.6033 4.43993 23C4.43993 12.4967 12.9267 3.83333 23.216 3.83333C28.1916 3.83333 32.9795 5.84583 36.5094 9.44917C40.0393 13.0525 41.992 17.9208 41.992 23C41.992 33.5033 33.4865 42.1667 23.216 42.1667ZM33.5428 27.6958C32.9795 27.4083 30.2194 26.0283 29.7125 25.8367C29.2055 25.645 28.83 25.5492 28.4545 26.1242C28.079 26.6992 27.0087 27.9833 26.6708 28.3667C26.3516 28.75 26.0136 28.7883 25.4503 28.5008C24.887 28.2133 23.0845 27.6192 20.9441 25.6642C19.273 24.15 18.1464 22.2717 17.8272 21.6967C17.5081 21.1217 17.7897 20.815 18.0713 20.5275C18.3154 20.2783 18.6346 19.8567 18.9163 19.5308C19.1979 19.205 19.2918 18.9558 19.4795 18.5725C19.6673 18.1892 19.5734 17.8633 19.442 17.5758C19.2918 17.2883 18.1652 14.4708 17.6958 13.3208C17.2452 12.2092 16.7758 12.3625 16.4378 12.3433C16.1186 12.3242 15.7431 12.3242 15.3676 12.3242C14.9921 12.3242 14.3912 12.4775 13.8655 13.0333C13.3586 13.6083 11.9128 15.0075 11.9128 17.825C11.9128 20.6425 13.9218 23.3642 14.2035 23.7475C14.4851 24.1308 18.1652 29.9192 23.7793 32.3917C25.1124 32.9858 26.1638 33.3308 26.9712 33.5992C28.3231 34.04 29.5435 33.9825 30.5011 33.8292C31.5713 33.6567 33.8244 32.4492 34.2938 31.1075C34.7632 29.7658 34.7632 28.6158 34.613 28.3858C34.4816 28.1367 34.1061 27.9833 33.5428 27.6958Z" fill="black"/>
</svg>
