<svg width="58" height="46" viewBox="0 0 58 46" fill="none" xmlns="http://www.w3.org/2000/svg">
<path d="M56.6439 5.30872C55.7472 5.7002 54.8253 6.03061 53.8833 6.29884C54.9985 5.05734 55.8488 3.59654 56.3679 1.998C56.4842 1.63969 56.3636 1.24748 56.0644 1.01314C55.7656 0.77861 55.3504 0.750518 55.0214 0.942452C53.0208 2.11037 50.8625 2.94969 48.5994 3.44049C46.3197 1.24784 43.2235 0 40.0227 0C33.2662 0 27.7693 5.41058 27.7693 12.061C27.7693 12.5848 27.803 13.1057 27.8696 13.6193C19.4855 12.8947 11.6909 8.83839 6.33832 2.37552C6.14757 2.14517 5.8537 2.02102 5.55284 2.04476C5.25179 2.06796 4.98131 2.23506 4.82922 2.49188C3.74362 4.32549 3.1697 6.42263 3.1697 8.55638C3.1697 11.4626 4.22382 14.22 6.08588 16.3746C5.5197 16.1815 4.97027 15.9403 4.44588 15.6538C4.16435 15.4995 3.82077 15.5019 3.54108 15.6597C3.26121 15.8176 3.08574 16.108 3.07837 16.4253C3.07708 16.4788 3.07708 16.5322 3.07708 16.5864C3.07708 20.9244 5.44899 24.83 9.07535 26.9587C8.76381 26.928 8.45245 26.8836 8.14312 26.8254C7.82421 26.7655 7.49629 26.8755 7.28123 27.1149C7.0658 27.3541 6.99454 27.6876 7.09379 27.9921C8.43606 32.1171 11.8919 35.1513 16.0697 36.0763C12.6047 38.2126 8.6421 39.3316 4.48233 39.3316C3.61436 39.3316 2.74142 39.2814 1.88708 39.1819C1.46267 39.1322 1.05686 39.3789 0.912318 39.7762C0.767779 40.1737 0.920972 40.6168 1.28204 40.8446C6.62592 44.2173 12.805 46 19.1509 46C31.6262 46 39.4303 40.2094 43.7803 35.3516C49.2046 29.2943 52.3156 21.2768 52.3156 13.3549C52.3156 13.024 52.3105 12.6898 52.3002 12.3566C54.4402 10.7695 56.2828 8.84872 57.7821 6.64102C58.0099 6.30573 57.9852 5.8626 57.7214 5.55394C57.4579 5.24511 57.0187 5.14524 56.6439 5.30872Z" fill="black"/>
</svg>
