<svg width="41" height="46" viewBox="0 0 41 46" fill="none" xmlns="http://www.w3.org/2000/svg">
<path d="M35.4224 19.3032C35.4718 12.8178 30.5325 6.87234 24.4119 6.0502C24.2902 6.03406 24.1576 6.00949 24.0172 5.98349C23.7142 5.92734 23.4008 5.86963 23.0847 5.86963C21.8302 5.86963 21.4949 6.85505 21.4066 7.44277C21.3208 8.01419 21.4027 8.49405 21.6496 8.86962C22.065 9.50133 22.796 9.61348 23.3831 9.70333C23.5552 9.7299 23.7175 9.75462 23.8534 9.78876C29.3525 11.1629 31.2042 13.3233 32.1091 19.4207C32.1312 19.5697 32.1412 19.7533 32.1518 19.948C32.1913 20.6769 32.2735 22.1933 33.7313 22.1933H33.7315C33.8528 22.1933 33.9832 22.1816 34.119 22.1584C35.4766 21.9277 35.434 20.5416 35.4136 19.8756C35.4078 19.688 35.4023 19.5106 35.4165 19.3926C35.4204 19.3629 35.4223 19.333 35.4224 19.3032Z" fill="black"/>
<path d="M22.7288 3.6697C22.8917 3.68285 23.0459 3.69542 23.1742 3.71742C32.2043 5.27041 36.3571 10.055 37.508 20.2324C37.5275 20.4054 37.5306 20.6164 37.5338 20.8398C37.5453 21.6349 37.5689 23.2891 39.1574 23.3234L39.2067 23.3239C39.7049 23.3239 40.1012 23.1559 40.3846 22.8242C40.8791 22.2458 40.8446 21.3865 40.8168 20.6959C40.81 20.5265 40.8035 20.3669 40.8052 20.2272C40.92 9.8184 32.8632 0.379713 23.5639 0.0287142C23.5253 0.0272856 23.4885 0.0295713 23.4513 0.0354285C23.433 0.0384285 23.3992 0.0421427 23.3412 0.0421427C23.2485 0.0421427 23.1344 0.0331428 23.0134 0.0239999C22.8671 0.0128571 22.7013 0 22.5332 0C21.0523 0 20.7707 1.17714 20.7347 1.87885C20.6517 3.50056 22.0546 3.6147 22.7288 3.6697Z" fill="black"/>
<path d="M37.0722 33.386C36.8802 33.222 36.6817 33.0523 36.4958 32.8849C35.5099 31.9976 34.461 31.1797 33.4466 30.3887C33.2361 30.2247 33.0256 30.0606 32.8158 29.896C31.5164 28.8753 30.3482 28.3793 29.2445 28.3793C27.7579 28.3793 26.4618 29.2979 25.3921 31.1092C24.9182 31.9122 24.3432 32.3026 23.6346 32.3026C23.2156 32.3026 22.7395 32.1689 22.2197 31.905C18.0255 29.778 15.0306 26.5169 13.3179 22.2122C12.49 20.1316 12.7584 18.7716 14.2154 17.6648C15.0428 17.0368 16.5829 15.8676 16.4738 13.6288C16.3503 11.0864 11.334 3.43654 9.22053 2.56768C8.32569 2.19968 7.38549 2.19625 6.42103 2.55911C3.99135 3.47254 2.24777 5.07667 1.37835 7.19781C0.538182 9.24738 0.576122 11.6539 1.48808 14.1574C4.12446 21.3953 7.83106 27.7059 12.5053 32.9135C17.0806 38.0112 22.704 42.1869 29.2192 45.3241C29.8064 45.6067 30.4224 45.7608 30.8722 45.8733C31.0255 45.9118 31.1578 45.9447 31.2543 45.9743C31.3073 45.9904 31.3619 45.9991 31.4167 45.9997L31.4682 46C31.4682 46 31.4682 46 31.4685 46C34.5328 46 38.2122 42.8686 39.3422 39.2986C40.3322 36.1726 38.5247 34.6274 37.0722 33.386Z" fill="black"/>
<path d="M24.0841 11.9375C23.5594 11.9524 22.4676 11.9827 22.0845 13.2262C21.9053 13.8074 21.9268 14.312 22.1484 14.7259C22.4736 15.3334 23.0968 15.5195 23.6636 15.6217C25.7191 15.9905 26.7747 17.2617 26.9859 19.6216C27.084 20.7221 27.7466 21.4905 28.5974 21.4905C28.6602 21.4905 28.7246 21.4864 28.7886 21.4776C29.8119 21.3415 30.3079 20.5008 30.263 18.9791C30.2794 17.3909 29.5362 15.5879 28.2722 14.1518C27.0038 12.7112 25.4748 11.9 24.0841 11.9375Z" fill="black"/>
</svg>
